<svg enable-background="new 0 0 512.001 512.001" viewBox="0 0 512.001 512.001" xmlns="http://www.w3.org/2000/svg"><path d="m432.194 425.486v-6.877l-3.706 3.821c-9.849 10.158-23.949 19.19-41.906 26.848-35.459 15.119-82.474 23.446-132.384 23.446-49.911 0-96.927-8.327-132.386-23.446-17.957-7.658-32.058-16.69-41.907-26.848l-3.706-3.821v6.877c0 18.009 18.143 36.192 49.776 49.885 33.679 14.58 79.216 22.608 128.223 22.608 49.006 0 94.541-8.029 128.219-22.608 31.635-13.694 49.777-31.876 49.777-49.885z" fill="#e84934"/><path d="m378.193 167.739-6.348-2.456-52.602 60.365c-1.967 2.257-4.798 3.571-7.797 3.618-.102-.004-.204-.008-.305-.009-2.503-.032-4.916-.951-6.795-2.588-2.125-1.85-3.402-4.419-3.596-7.23-.193-2.816.722-5.538 2.574-7.665l46.599-53.474-16.341-3.319c-24.608-4.996-52.059-7.636-79.384-7.636-26.113 0-52.469 2.423-76.217 7.009l-16.558 3.195 47.253 54.227c1.382 1.585 2.251 3.507 2.513 5.558.088.688.109 1.396.06 2.1-.194 2.815-1.471 5.386-3.6 7.239-1.921 1.674-4.381 2.595-6.926 2.595-3.057 0-5.96-1.32-7.966-3.62l-53.43-61.315-6.287 2.331c-41.523 15.388-64.391 36.955-64.391 60.725 0 21.473 19.295 41.651 54.328 56.816 34.603 14.981 81.205 23.23 131.221 23.23s96.617-8.25 131.218-23.23c35.034-15.165 54.328-35.342 54.328-56.816 0-23.13-21.861-44.316-61.551-59.65z" fill="#eaeae9"/><path d="m143.596 284.206c-35.033-15.165-54.328-35.342-54.328-56.816 0-21.961 19.532-42.038 55.249-57.1l-5.189-5.955-6.287 2.331c-41.523 15.388-64.391 36.954-64.391 60.725 0 21.473 19.295 41.651 54.328 56.816 34.603 14.981 81.205 23.23 131.221 23.23 3.453 0 6.891-.043 10.31-.121-46.086-1.056-88.7-9.165-120.913-23.11z" opacity=".1"/><g fill="#ffd05c"><path d="m422.845 410.896.966-1.157-41.587-71.867-58.884 117.316 4.28-.802c44.385-8.332 79.093-24.184 95.225-43.49z"/><path d="m268.809 351.033-3.543.116 51.157 91.378 54.551-108.681-4.886 1.561c-28.343 9.061-61.982 14.464-97.279 15.626z"/><path d="m200.784 457.555 3.299.396c16.074 1.931 32.935 2.909 50.115 2.909 18.442 0 36.483-1.127 53.623-3.349l3.163-.41-53.172-94.98z"/><path d="m143.431 335.763-4.99-1.57 57.185 108.866 54.85-91.791-3.728-.063c-37.479-.623-73.205-5.963-103.317-15.442z"/><path d="m86.795 412.377 1.067 1.136c17.576 18.699 52.84 33.853 96.752 41.572l4.326.76-61.902-117.847z"/><path d="m79.904 300.982-3.706-3.821v91.203c0 2.799.45 5.658 1.336 8.499l1.524 4.878 40.512-74.876-2.102-.958c-15.911-7.244-28.55-15.629-37.564-24.925z"/></g><path d="m89.089 309.171c-3.387-2.642-6.454-5.373-9.185-8.189l-3.706-3.821v91.203c0 2.799.45 5.658 1.336 8.499l1.524 4.878 10.029-18.537v-74.033z" opacity=".1"/><path d="m27.78 14.021c-1.065 0-2.639.266-4.095 1.536-1.697 1.477-2.06 3.314-2.127 4.279-.067.964.043 2.832 1.52 4.525l172.93 198.45c.202.232.409.437.619.62 1.516 1.327 3.217 1.524 4.096 1.524 1.063 0 2.637-.266 4.095-1.535 1.697-1.48 2.061-3.316 2.127-4.28.067-.965-.044-2.835-1.522-4.53l-172.93-198.449c-1.623-1.862-3.649-2.14-4.713-2.14z" fill="#415b6b"/><path d="m432.194 257.634-3.706 3.821c-9.848 10.155-23.947 19.188-41.906 26.848-35.458 15.121-82.473 23.447-132.384 23.447-49.912 0-96.928-8.327-132.386-23.447-17.96-7.659-32.06-16.691-41.907-26.848l-3.706-3.821v9.283c0 18.009 18.143 36.193 49.776 49.886 33.679 14.579 79.216 22.608 128.223 22.608 49.006 0 94.541-8.029 128.219-22.608 31.634-13.693 49.776-31.877 49.776-49.886v-9.283z" fill="#e84934"/><path d="m138.864 316.803c-29.965-12.97-47.814-29.971-49.614-47.036-3.443-2.678-6.569-5.45-9.345-8.312l-3.706-3.821v9.283c0 18.009 18.143 36.193 49.776 49.886 33.679 14.579 79.216 22.608 128.223 22.608 2.156 0 4.302-.022 6.445-.053-46.544-.672-89.582-8.617-121.779-22.555z" opacity=".1"/><path d="m138.864 475.371c-29.965-12.97-47.814-29.971-49.614-47.036-3.443-2.678-6.569-5.45-9.345-8.312l-3.706-3.821v9.283c0 18.009 18.143 36.193 49.776 49.886 33.679 14.58 79.216 22.608 128.223 22.608 2.156 0 4.302-.022 6.445-.053-46.544-.672-89.582-8.617-121.779-22.555z" opacity=".1"/><path d="m490.442 19.835c-.066-.964-.429-2.801-2.126-4.279-1.457-1.269-3.031-1.536-4.096-1.536-1.063 0-3.092.278-4.713 2.141l-172.93 198.448c-1.478 1.695-1.589 3.567-1.522 4.531.066.963.43 2.8 2.127 4.279 1.457 1.269 3.032 1.536 4.095 1.536.878 0 2.58-.198 4.095-1.523.211-.184.42-.389.618-.619l172.931-198.45c1.477-1.695 1.587-3.565 1.521-4.528z" fill="#415b6b"/><path d="m432.194 297.162-3.706 3.821c-8.887 9.165-21.311 17.453-36.923 24.63l-2.153.99 41.579 71.854.9-6.128c.202-1.37.303-2.704.303-3.966z" fill="#ffd05c"/><path d="m504.43 18.874c-.371-5.401-2.823-10.333-6.901-13.888-3.692-3.215-8.417-4.986-13.309-4.986-5.864 0-11.435 2.533-15.284 6.949l-125.16 143.631c-27.42-6.354-58.267-9.706-89.578-9.706-30.121 0-59.932 3.115-86.57 9.022l-124.565-142.948c-3.849-4.416-9.42-6.948-15.283-6.948-4.891 0-9.617 1.771-13.307 4.986-4.08 3.555-6.533 8.487-6.903 13.888s1.383 10.622 4.939 14.7l112.604 129.22c-9.95 3.995-18.915 8.441-26.736 13.279-3.799 2.351-4.973 7.336-2.623 11.135s7.335 4.973 11.135 2.623c8.375-5.182 18.286-9.903 29.525-14.066l49.025 56.26c.475.545.974 1.055 1.492 1.536.123.114.258.214.384.325.404.358.814.709 1.24 1.029.171.128.354.239.528.362.394.277.789.55 1.199.796.223.135.456.25.685.376.371.203.742.406 1.123.585.279.132.564.245.849.363.338.14.675.278 1.019.4.33.116.663.218.999.317.307.091.614.178.924.253.369.091.739.169 1.113.239.287.054.573.099.862.14.393.056.785.105 1.182.138.283.024.566.033.85.045.279.011.555.045.836.045.138 0 .275-.016.413-.018.149-.003.298-.014.448-.02.477-.02.951-.052 1.424-.106.19-.022.377-.051.567-.078.425-.06.846-.131 1.265-.217.23-.047.457-.101.686-.157.372-.091.74-.191 1.105-.302.259-.079.516-.162.771-.25.331-.115.658-.243.983-.375.27-.11.538-.221.803-.343.315-.146.623-.305.931-.467.257-.135.513-.264.766-.411.338-.196.663-.412.99-.628.207-.137.418-.263.622-.409.526-.376 1.039-.774 1.53-1.203 4.082-3.555 6.535-8.488 6.906-13.889.093-1.35.053-2.69-.115-4.002-.504-3.939-2.157-7.641-4.824-10.702l-20.111-23.079-16.063-18.434c23.227-4.485 48.663-6.834 74.378-6.834 26.902 0 53.398 2.558 77.452 7.443l-35.643 40.903c-3.557 4.081-5.311 9.303-4.94 14.705.372 5.401 2.824 10.334 6.905 13.888.492.429 1.005.828 1.533 1.205.197.141.403.264.604.398.333.221.667.441 1.011.641.244.141.494.267.742.398.317.167.635.331.96.481.256.118.514.224.774.33.337.138.674.27 1.017.389.246.085.492.165.74.241.376.115.756.219 1.139.312.218.053.436.105.655.15.429.09.861.162 1.296.223.18.025.358.053.539.073.48.055.962.087 1.447.108.142.005.285.016.428.019.14.003.278.019.418.019h.001c.284 0 .563-.033.844-.045.279-.012.558-.022.836-.045.4-.033.795-.082 1.191-.139.286-.041.571-.086.854-.139.375-.07.747-.149 1.116-.239.311-.076.617-.163.924-.253.335-.099.668-.201.997-.316.346-.122.687-.262 1.027-.403.281-.118.564-.23.84-.359.386-.181.761-.385 1.138-.592.223-.123.45-.236.669-.368.415-.249.818-.526 1.217-.808.169-.12.346-.228.512-.352.434-.325.849-.681 1.259-1.045.12-.106.248-.201.366-.31.518-.481 1.018-.991 1.493-1.537l48.131-55.233c34.772 13.435 55.345 32.147 55.345 50.598 0 33.969-70.656 70.339-175.839 70.339-105.184 0-175.842-36.37-175.842-70.339 0-7.607 3.378-15.22 10.038-22.633 2.986-3.323 2.714-8.436-.609-11.423-3.324-2.989-8.438-2.714-11.423.609-9.412 10.473-14.183 21.726-14.183 33.446 0 .82.028 1.637.074 2.453-.044.343-.074.689-.074 1.044v25.367 10.664 1.09 120.357 37.122c0 24.395 20.877 46.731 58.788 62.895 35.72 15.23 83.036 23.618 133.231 23.618s97.51-8.388 133.229-23.618c37.909-16.164 58.787-38.5 58.787-62.895v-37.122-120.358-1.09-10.664-25.367c0-.355-.03-.701-.074-1.044.047-.815.074-1.633.074-2.453 0-24.627-21.808-47.414-60.28-63.501l113.558-130.312c3.556-4.079 5.309-9.301 4.939-14.702zm-480.719 1.108c.043-.63.281-1.832 1.391-2.8.953-.83 1.982-1.004 2.678-1.004.697 0 2.024.182 3.087 1.401l172.93 198.449c.967 1.11 1.04 2.335.997 2.966s-.283 1.832-1.392 2.801c-.21.183-.434.34-.667.472-.003.002-.008.004-.011.006-.468.264-.976.427-1.493.492-.008.001-.015.001-.023.002-.255.03-.512.038-.768.02-.001 0-.002 0-.004 0-.258-.017-.513-.06-.764-.126-.008-.002-.017-.005-.025-.008-.481-.131-.94-.353-1.355-.659-.032-.024-.065-.049-.097-.074-.198-.156-.387-.328-.559-.525l-172.931-198.452c-.966-1.107-1.037-2.33-.994-2.961zm92.863 307.89-36.979 68.347c-.818-2.621-1.239-5.245-1.239-7.855v-85.879c9.124 9.409 21.972 17.99 38.218 25.387zm10.436 14.71 57.977 110.377c-45.604-8.017-79.221-23.546-95.554-40.925zm15.773-4.761c30.208 9.507 66.116 14.911 103.928 15.542l-50.965 85.289zm114.968 28.607 49.793 88.945c-16.519 2.141-34.366 3.331-53.346 3.331-17.65 0-34.323-1.028-49.858-2.894zm11.128-13.24c35.636-1.173 69.336-6.607 97.864-15.726l-50.426 100.465zm113.482-10.777 38.829 67.1c-14.952 17.894-48.142 34.149-93.968 42.753zm47.676 45.953c0 1.216-.101 2.433-.28 3.653l-37.291-64.443c15.94-7.329 28.57-15.806 37.572-25.089v85.879zm-309.07-98.078c35.72 15.232 83.036 23.62 133.231 23.62 50.194 0 97.51-8.388 133.229-23.62 18.338-7.819 32.677-17.087 42.609-27.33v3.96c0 33.968-70.656 70.337-175.839 70.337-105.184 0-175.842-36.369-175.842-70.337v-3.96c9.934 10.244 24.273 19.511 42.612 27.33zm133.231 205.536c-105.184 0-175.842-36.369-175.842-70.336v-1.553c9.932 10.243 24.271 19.509 42.61 27.33 35.72 15.231 83.036 23.619 133.231 23.619s97.51-8.388 133.229-23.619c18.338-7.819 32.677-17.087 42.609-27.33v1.553c.002 33.967-70.654 70.336-175.837 70.336zm233.097-472.877-172.931 198.451c-.173.198-.363.371-.563.528-.029.023-.058.045-.087.067-1.507 1.117-3.641 1.085-5.115-.197-1.109-.966-1.348-2.169-1.391-2.8s.028-1.856.997-2.966l44.554-51.128c.001-.001.002-.002.002-.003l128.372-147.318c1.061-1.22 2.39-1.401 3.087-1.401.696 0 1.726.174 2.679 1.005 1.109.966 1.347 2.17 1.39 2.8.044.63-.028 1.853-.994 2.962z"/></svg>